<?xml version="1.0" encoding="UTF-8" standalone="no"?>
<svg
   xmlns:dc="http://purl.org/dc/elements/1.1/"
   xmlns:cc="http://creativecommons.org/ns#"
   xmlns:rdf="http://www.w3.org/1999/02/22-rdf-syntax-ns#"
   xmlns:svg="http://www.w3.org/2000/svg"
   xmlns="http://www.w3.org/2000/svg"
   viewBox="0 0 567.41748 567.23614"
   height="567.23615"
   width="567.41748"
   version="1.1"
   id="svg4136">
  <metadata
     id="metadata4142">
    <rdf:RDF>
      <cc:Work
         rdf:about="">
        <dc:format>image/svg+xml</dc:format>
        <dc:type
           rdf:resource="http://purl.org/dc/dcmitype/StillImage" />
        <dc:title></dc:title>
      </cc:Work>
    </rdf:RDF>
  </metadata>
  <defs
     id="defs4140" />
  <path
     id="path4148"
     d="M 93.558599,563.93656 C 2.0532906,544.05827 -31.337349,429.28672 35.089997,362.96612 73.276687,324.84078 150.55861,314.62738 150.55861,347.70604 c 0,14.84369 -5.76544,18.83305 -26.48525,18.32634 -58.026643,-1.41906 -99.905723,47.90473 -86.447523,101.815 23.92432,95.83503 160.817363,77.92884 162.123443,-21.20642 0.48114,-36.51958 33.48538,-44.6285 37.28369,-9.16036 8.40939,78.52569 -65.25116,143.44889 -143.474371,126.45596 z m 328.800011,0.54715 c -56.36255,-11.83961 -93.82232,-58.22036 -94.07922,-116.48399 -0.10644,-24.14189 3.43565,-30.41924 17.76927,-31.49087 14.73369,-1.10154 18.90159,5.27083 19.26135,29.44907 0.87306,58.67439 51.99718,98.59679 105.04861,82.03157 93.04632,-29.05358 69.37878,-166.17842 -27.93513,-161.85031 -19.29652,0.85823 -27.09026,-3.95314 -28.16891,-17.3897 -2.61395,-32.56148 72.75054,-25.24023 112.75184,10.95321 89.37221,80.8646 13.37839,229.5738 -104.64781,204.78102 z m 14.77495,-98.0905 c -2.76459,-1.53687 -11.73097,-10.08089 -19.93241,-18.99349 -106.0816,-115.28019 -151.9513,-116.87598 -259.44254,-9.0259 -29.0887,29.18581 -33.94834,31.96068 -46.53855,26.57369 C 91.652079,456.57493 95.105469,439.79427 121.35539,415.69819 234.7896,311.57135 236.30348,265.76697 129.82301,159.5 114.48276,144.19052 102.15603,130.89331 101.21393,128.63854 95.031459,113.8418 104.035,99.95449 119.75086,100.04668 c 11.01967,0.0647 10.88327,-0.0361 43.07536,31.8268 103.44927,102.39149 140.48418,102.13356 244.53184,-1.70302 15.1797,-15.1489 29.33735,-28.2696 31.46146,-29.1571 17.13436,-7.15919 33.02836,8.28628 27.94672,27.15805 -1.24937,4.63979 -5.11452,9.08024 -29.2359,33.58747 -105.51177,107.19953 -103.8498,149.64743 10.0554,256.82067 16.9232,15.92303 18.94015,18.70044 19.98464,27.51949 2.06867,17.46667 -15.02312,28.86285 -30.43682,20.29417 z M 95.358599,237.43339 C -9.1921095,214.73786 -34.860029,79.90591 54.023517,20.302788 133.15322,-32.75964 238.15716,24.335753 238.11139,120.3997 c -0.012,24.1699 -3.55432,30.42261 -17.84283,31.49087 -14.74392,1.10231 -18.95246,-5.32927 -19.29654,-29.48931 C 199.87587,45.430728 114.47817,7.9404693 61.236657,61.056336 7.6990106,114.46765 44.276967,201.15637 120.70824,202.00228 c 24.23096,0.26817 30.2303,3.64488 31.3544,17.64766 1.42076,17.69816 -22.51545,25.20501 -56.704041,17.78345 z m 334.347371,1.16382 c -9.56445,-2.25816 -15.04591,-10.0193 -14.11872,-19.99055 1.25387,-13.48432 6.50406,-16.67664 26.67891,-16.22178 67.27109,1.51673 108.26615,-61.17356 78.98748,-120.78889 -38.36576,-78.1178647 -153.75432,-48.177948 -154.70182,40.14055 -0.39185,36.52521 -33.46748,44.66694 -37.26847,9.17382 C 314.71393,-5.1367387 507.44935,-51.138915 559.67955,75.919286 593.09276,157.20216 512.45234,258.13357 429.70597,238.59721 Z"
     style="fill:#000000" />
</svg>
