<?xml version="1.0" encoding="UTF-8" standalone="no"?>
<!-- Created with Inkscape (http://www.inkscape.org/) -->

<svg
   xmlns:dc="http://purl.org/dc/elements/1.1/"
   xmlns:cc="http://creativecommons.org/ns#"
   xmlns:rdf="http://www.w3.org/1999/02/22-rdf-syntax-ns#"
   xmlns:svg="http://www.w3.org/2000/svg"
   xmlns="http://www.w3.org/2000/svg"
   xmlns:sodipodi="http://sodipodi.sourceforge.net/DTD/sodipodi-0.dtd"
   xmlns:inkscape="http://www.inkscape.org/namespaces/inkscape"
   width="109.0833mm"
   height="104.54687mm"
   viewBox="0 0 386.51562 370.44165"
   id="svg9082"
   version="1.1"
   inkscape:version="0.91 r13725"
   sodipodi:docname="my-platform-outline2.svg">
  <defs
     id="defs9084" />
  <sodipodi:namedview
     id="base"
     pagecolor="#ffffff"
     bordercolor="#666666"
     borderopacity="1.0"
     inkscape:pageopacity="0.0"
     inkscape:pageshadow="2"
     inkscape:zoom="1.9509766"
     inkscape:cx="158.26329"
     inkscape:cy="285.77802"
     inkscape:document-units="mm"
     inkscape:current-layer="layer1"
     showgrid="false"
     fit-margin-top="0"
     fit-margin-left="0"
     fit-margin-right="0"
     fit-margin-bottom="0"
     inkscape:window-width="2495"
     inkscape:window-height="1576"
     inkscape:window-x="65"
     inkscape:window-y="24"
     inkscape:window-maximized="1" />
  <metadata
     id="metadata9087">
    <rdf:RDF>
      <cc:Work
         rdf:about="">
        <dc:format>image/svg+xml</dc:format>
        <dc:type
           rdf:resource="http://purl.org/dc/dcmitype/StillImage" />
        <dc:title></dc:title>
      </cc:Work>
    </rdf:RDF>
  </metadata>
  <g
     inkscape:label="Layer 1"
     inkscape:groupmode="layer"
     id="layer1"
     transform="translate(-17.716535,-664.20401)">
    <g
       id="g9834">
      <path
         id="rect6790"
         d="m 51.345447,664.22173 c -0.905737,0 -1.811836,0.34699 -2.505859,1.04101 l -30.064453,30.06641 c -1.388045,1.38804 -1.388045,3.62172 0,5.00976 l 126.255855,126.25586 -0.0176,0.0156 a 30.865747,30.865747 0 0 1 9.05469,21.81055 l 0,86.99414 a 7.0866141,7.0866141 0 0 1 -7.08594,7.08789 l -12.18945,0 c -1.96299,0 -3.54297,1.57997 -3.54297,3.54297 l 0,85.03908 c 0,1.963 1.57998,3.543 3.54297,3.543 l 152.36133,0 c 1.96299,0 3.54492,-1.58 3.54492,-3.543 l 0,-85.03908 c 0,-1.963 -1.58193,-3.54297 -3.54492,-3.54297 l -12.18945,0 a 7.0866141,7.0866141 0 0 1 -7.08594,-7.08789 l 0,-86.99414 a 30.865747,30.865747 0 0 1 9.05468,-21.81055 l -0.0156,-0.0156 126.25586,-126.25586 c 1.38804,-1.38804 1.38804,-3.62172 0,-5.00976 l -30.06445,-30.06641 c -0.69403,-0.69402 -1.60013,-1.04101 -2.50586,-1.04101 -0.90574,0 -1.81184,0.34699 -2.50586,1.04101 l -127.78125,127.7793 0,0.002 -5.00977,5.00977 -2.50586,2.50586 -0.002,-0.002 a 30.865747,30.865747 0 0 1 -43.65039,0 l -2.50586,-2.5039 L 53.851307,665.26274 c -0.694023,-0.69402 -1.600123,-1.04101 -2.50586,-1.04101 z m 293.874993,53.33203 5.66211,5.66211 -15.0332,15.0332 -5.66211,-5.66211 15.0332,-15.0332 z m -42.59375,42.5957 5.66211,5.66211 -15.0332,15.0332 -5.66211,-5.66406 15.0332,-15.03125 z m -98.74023,168.17969 14.17383,0 c 1.96299,0 3.54297,1.57998 3.54297,3.54297 l 0,7.08789 c 0,1.96299 -1.57998,3.54297 -3.54297,3.54297 l -14.17383,0 c -1.96299,0 -3.54297,-1.57998 -3.54297,-3.54297 l 0,-7.08789 c 0,-1.96299 1.57998,-3.54297 3.54297,-3.54297 z"
         style="opacity:1;fill:none;fill-opacity:1;stroke:#0000ff;stroke-width:0.03543307;stroke-linecap:round;stroke-miterlimit:4;stroke-dasharray:none;stroke-dashoffset:0;stroke-opacity:1"
         inkscape:connector-curvature="0" />
      <path
         inkscape:connector-curvature="0"
         id="rect6794-5-3-1"
         d="m 370.60213,681.76249 c -0.90574,0 -1.81183,0.34699 -2.50586,1.04102 l -115.2539,115.25195 c -1.38805,1.38804 -1.38805,3.62367 0,5.01172 l 12.52929,12.52734 c 1.38805,1.38805 3.62172,1.38805 5.00977,0 l 115.25391,-115.2539 c 1.38804,-1.38805 1.38804,-3.62173 0,-5.00977 l -12.52735,-12.52734 c -0.69402,-0.69403 -1.60012,-1.04102 -2.50586,-1.04102 z m -25.38086,35.79102 5.66211,5.66211 -15.0332,15.0332 -5.66211,-5.66211 15.0332,-15.0332 z m -42.59375,42.5957 5.66211,5.66211 -15.0332,15.0332 -5.66211,-5.66406 15.0332,-15.03125 z"
         style="opacity:1;fill:#000000;fill-opacity:1;stroke:none;stroke-width:26;stroke-linecap:round;stroke-miterlimit:4;stroke-dasharray:none;stroke-dashoffset:0;stroke-opacity:1" />
      <rect
         ry="3.5433071"
         rx="3.5433071"
         transform="matrix(0.70710678,-0.70710678,0.70710678,0.70710678,0,0)"
         y="743.09741"
         x="-389.0676"
         height="24.80315"
         width="170.07874"
         id="rect6794-5-3"
         style="opacity:1;fill:none;fill-opacity:1;stroke:#ff0000;stroke-width:0.03543307;stroke-linecap:round;stroke-miterlimit:4;stroke-dasharray:none;stroke-dashoffset:0;stroke-opacity:1" />
      <rect
         ry="3.5433071"
         rx="3.5433071"
         transform="matrix(0.70710678,0.70710678,-0.70710678,0.70710678,0,0)"
         y="444.73535"
         x="517.35089"
         height="24.80315"
         width="170.07874"
         id="rect6794-5"
         style="opacity:1;fill:#000000;fill-opacity:1;stroke:#ff0000;stroke-width:0.03543307;stroke-linecap:round;stroke-miterlimit:4;stroke-dasharray:none;stroke-dashoffset:0;stroke-opacity:1" />
    </g>
    <g
       id="g9793"
       transform="matrix(0,1,-1,0,326.00197,449.98136)">
      <path
         sodipodi:nodetypes="ccccccsssssccccsssssssscccsssssscccccccsscccssscsssssccsssccsscc"
         inkscape:connector-curvature="0"
         id="rect4190-8-8-4"
         d="m 430.73275,234.70938 c -0.13919,2e-4 -0.27,0.067 -0.35352,0.1778 l -4.65234,6.2011 c -0.0572,0.077 -0.0881,0.17 -0.0879,0.2657 -2.1e-4,0.2449 0.19842,0.4435 0.44336,0.4433 l 2.65625,0 0,6.2363 c 0,0.9816 0.78999,1.7715 1.77148,1.7715 0.9815,0 1.77149,0.79 1.77149,1.7715 l 0,14.1741 c 0,0.9815 -0.78999,1.7715 -1.77149,1.7715 -0.98149,0 -1.77343,-0.79 -1.77343,-1.7715 0.002,-4.7245 0.002,-10.6331 0.002,-10.6331 -9e-5,-0.9783 -0.79315,-1.7713 -1.77148,-1.7715 l -38.97852,0 -12.39844,0 c -1.96299,0 -3.54297,1.58 -3.54297,3.543 l 0,30.1191 c 0,1.963 1.57998,3.543 3.54297,3.543 l 187.79688,0 c 1.96299,0 3.54297,-1.58 3.54297,-3.543 l 0,-30.1191 c 0,-1.963 -1.57998,-3.543 -3.54297,-3.543 l -12.40625,0 -38.97657,0 c -0.97833,1e-4 -1.7714,0.7932 -1.77148,1.7715 l 0,10.6311 c 0,0.9815 -0.78999,1.7715 -1.77148,1.7715 -0.9815,0 -1.77149,-0.79 -1.77149,-1.7715 l 0,-14.1741 c 0,-0.9815 0.78999,-1.7715 1.77149,-1.7715 0.98149,0 1.77148,-0.7899 1.77148,-1.7715 l 0,-6.2363 2.65625,0 c 0.24494,2e-4 0.44357,-0.1984 0.44336,-0.4433 -3.6e-4,-0.096 -0.0319,-0.1892 -0.0898,-0.2657 l 0.002,0 -4.65234,-6.2011 c -0.0835,-0.1111 -0.21433,-0.1776 -0.35352,-0.1778 l -10.40608,0 c -0.9815,2e-4 -1.77149,0.79 -1.77149,1.7715 l 0,5.3164 0,8.0078 0,3.543 0,12.4026 c 0,0.9815 -0.78998,1.7715 -1.77148,1.7715 -0.9815,0 -1.77344,-0.79 -1.77344,-1.7715 l 0,-10.6116 c 8e-5,-0.01 0.002,-0.013 0.002,-0.02 l 0,-3.543 c 0,-0.9815 -0.79195,-1.7714 -1.77344,-1.7715 l -42.5194,0 c -0.9815,-1e-4 -1.77148,0.79 -1.77148,1.7715 l 0,1.7715 0,1.7715 0,10.6311 c 0,0.9815 -0.78999,1.7715 -1.77149,1.7715 -0.9815,0 -1.77148,-0.79 -1.77148,-1.7715 l 0,-15.9456 0,-8.0078 0,-5.3164 c 0,-0.9815 -0.78999,-1.7717 -1.77149,-1.7715 l -10.40655,0 z"
         style="opacity:1;fill:none;fill-opacity:1;stroke:#0000ff;stroke-width:0.03543307;stroke-linecap:round;stroke-miterlimit:4;stroke-dasharray:none;stroke-dashoffset:0;stroke-opacity:1" />
      <path
         sodipodi:nodetypes="cssssssc"
         inkscape:connector-curvature="0"
         id="rect6794-5-3-8-7-1-2-2-7"
         d="m 550.98472,253.3476 c 1.96299,0 3.54331,1.5803 3.54331,3.5433 l 0,17.7165 c 0,1.963 -1.58032,3.5433 -3.54331,3.5433 l -162.99212,0 c -1.96299,0 -3.54331,-1.5803 -3.54331,-3.5433 l 0,-17.7165 c 0,-1.963 1.58032,-3.5433 3.54331,-3.5433"
         style="opacity:1;fill:none;fill-opacity:1;stroke:#ff0000;stroke-width:0.03543307;stroke-linecap:round;stroke-miterlimit:4;stroke-dasharray:none;stroke-dashoffset:0;stroke-opacity:1" />
      <path
         inkscape:connector-curvature="0"
         id="rect4190-8-8-4-9"
         d="m 387.98866,253.34493 c -1.96115,0.002 -3.53907,1.58325 -3.53907,3.54492 l 0,17.71484 c 0,1.96299 1.57998,3.54492 3.54297,3.54492 l 162.99279,0 c 1.96299,0 3.54298,-1.58193 3.54298,-3.54492 l 0,-17.71484 c 0,-1.96299 -1.57999,-3.54492 -3.54298,-3.54492 l -38.98061,0 c -0.97834,1e-4 -1.77141,0.79318 -1.77149,1.77148 l 0,10.63086 c 0,0.9815 -0.79,1.77149 -1.7715,1.77148 -0.9815,0 -1.77148,-0.78998 -1.77148,-1.77148 l 0,-12.40234 -10.62895,0 0,12.40234 c 0,0.9815 -0.78999,1.77149 -1.77149,1.77148 -0.9815,0 -1.77345,-0.78998 -1.77345,-1.77148 l 0,-10.61133 c 8e-5,-0.01 0.002,-0.0145 0.002,-0.0215 l 0,-1.76953 -46.06461,0 0,1.76953 0,10.63281 c 0,0.9815 -0.78999,1.77148 -1.77149,1.77148 -0.9815,0 -1.7715,-0.78998 -1.7715,-1.77148 l 0,-12.40234 -10.62894,0 0,12.40429 c 0,0.9815 -0.78999,1.77149 -1.77149,1.77149 -0.9815,0 -1.77344,-0.78999 -1.77344,-1.77149 0.002,-4.7245 0.002,-10.63281 0.002,-10.63281 -9e-5,-0.9783 -0.79316,-1.77128 -1.77149,-1.77148 l -38.97866,0 z"
         style="opacity:1;fill:#000000;fill-opacity:1;stroke:none;stroke-width:26;stroke-linecap:round;stroke-miterlimit:4;stroke-dasharray:none;stroke-dashoffset:0;stroke-opacity:1" />
    </g>
  </g>
</svg>
