<?xml version="1.0" encoding="UTF-8" standalone="no"?>
<!-- Created with Inkscape (http://www.inkscape.org/) -->

<svg
   xmlns:dc="http://purl.org/dc/elements/1.1/"
   xmlns:cc="http://creativecommons.org/ns#"
   xmlns:rdf="http://www.w3.org/1999/02/22-rdf-syntax-ns#"
   xmlns:svg="http://www.w3.org/2000/svg"
   xmlns="http://www.w3.org/2000/svg"
   xmlns:sodipodi="http://sodipodi.sourceforge.net/DTD/sodipodi-0.dtd"
   xmlns:inkscape="http://www.inkscape.org/namespaces/inkscape"
   width="181mm"
   height="181mm"
   viewBox="0 0 641.33858 641.33858"
   id="svg2"
   version="1.1"
   inkscape:version="0.91 r13725"
   sodipodi:docname="my-platform.svg">
  <defs
     id="defs4" />
  <sodipodi:namedview
     id="base"
     pagecolor="#ffffff"
     bordercolor="#666666"
     borderopacity="1.0"
     inkscape:pageopacity="0.0"
     inkscape:pageshadow="2"
     inkscape:zoom="1"
     inkscape:cx="241.42312"
     inkscape:cy="-34.290471"
     inkscape:document-units="mm"
     inkscape:current-layer="layer1"
     showgrid="false"
     inkscape:window-width="2495"
     inkscape:window-height="1576"
     inkscape:window-x="65"
     inkscape:window-y="24"
     inkscape:window-maximized="1" />
  <metadata
     id="metadata7">
    <rdf:RDF>
      <cc:Work
         rdf:about="">
        <dc:format>image/svg+xml</dc:format>
        <dc:type
           rdf:resource="http://purl.org/dc/dcmitype/StillImage" />
        <dc:title />
      </cc:Work>
    </rdf:RDF>
  </metadata>
  <g
     inkscape:label="Layer 1"
     inkscape:groupmode="layer"
     id="layer1"
     transform="translate(0,-411.02362)">
    <text
       xml:space="preserve"
       style="font-style:normal;font-weight:normal;font-size:5px;line-height:125%;font-family:Sans;letter-spacing:0px;word-spacing:0px;fill:#000000;fill-opacity:1;stroke:none;stroke-width:1px;stroke-linecap:butt;stroke-linejoin:miter;stroke-opacity:1"
       x="898.74518"
       y="535.19971"
       id="text4192"
       sodipodi:linespacing="125%"><tspan
         sodipodi:role="line"
         id="tspan4194"
         x="898.74518"
         y="535.19971">Delrin is a trade name for POM.</tspan><tspan
         sodipodi:role="line"
         x="898.74518"
         y="541.44971"
         id="tspan16081">Sculpteo have POM at 2, 3 and 5 mm.</tspan><tspan
         sodipodi:role="line"
         x="898.74518"
         y="547.69971"
         id="tspan16083">Ponoko have Delrin at 0.8, 2.3, 3.2 and 4.9mm.</tspan><tspan
         sodipodi:role="line"
         x="898.74518"
         y="553.94971"
         id="tspan16079">Variation of POM at 2mm is +/-0.26mm (approximated from Ponoko values for 0.8 and 2.3mm).</tspan><tspan
         sodipodi:role="line"
         x="898.74518"
         y="560.19971"
         id="tspan16075">The area under the &quot;noses&quot; of the notches is 2.26mm high.</tspan><tspan
         sodipodi:role="line"
         x="898.74518"
         y="566.44971"
         id="tspan16077">The slots for the notches are 2.26mm wide.</tspan></text>
    <g
       id="g16027"
       transform="translate(409.00862,-510.81623)">
      <g
         transform="translate(-484.5,94.5)"
         id="g4625">
        <rect
           style="opacity:0.5;fill:#ff0000;fill-opacity:1;stroke:none;stroke-width:26;stroke-linecap:round;stroke-miterlimit:4;stroke-dasharray:none;stroke-dashoffset:0;stroke-opacity:1"
           id="rect6820-7-5-22-6"
           width="194.8819"
           height="37.204723"
           x="750.07874"
           y="1287.8898" />
        <rect
           style="opacity:0.5;fill:#00ff00;fill-opacity:1;stroke:none;stroke-width:26;stroke-linecap:round;stroke-miterlimit:4;stroke-dasharray:none;stroke-dashoffset:0;stroke-opacity:1"
           id="rect6794-5-3-8-7"
           width="170.07874"
           height="24.80315"
           x="762.47723"
           y="1287.8898" />
        <rect
           style="opacity:0.5;fill:#0000ff;fill-opacity:1;stroke:none;stroke-width:26;stroke-linecap:round;stroke-miterlimit:4;stroke-dasharray:none;stroke-dashoffset:0;stroke-opacity:1"
           id="rect4190"
           width="81.496063"
           height="3.5433071"
           x="806.76855"
           y="1284.3464" />
        <rect
           style="opacity:0.5;fill:#0000ff;fill-opacity:1;stroke:none;stroke-width:26;stroke-linecap:round;stroke-miterlimit:4;stroke-dasharray:none;stroke-dashoffset:0;stroke-opacity:1"
           id="rect4190-5"
           width="3.5433071"
           height="21.259842"
           x="806.76855"
           y="1284.3464" />
        <rect
           style="opacity:0.5;fill:#0000ff;fill-opacity:1;stroke:none;stroke-width:26;stroke-linecap:round;stroke-miterlimit:4;stroke-dasharray:none;stroke-dashoffset:0;stroke-opacity:1"
           id="rect4190-5-6"
           width="3.5433071"
           height="21.259842"
           x="884.72131"
           y="1284.3464" />
        <rect
           style="opacity:0.5;fill:#0000ff;fill-opacity:1;stroke:none;stroke-width:26;stroke-linecap:round;stroke-miterlimit:4;stroke-dasharray:none;stroke-dashoffset:0;stroke-opacity:1"
           id="rect4190-5-1"
           width="3.5433071"
           height="21.259842"
           x="817.39801"
           y="1284.3466" />
        <rect
           style="opacity:0.5;fill:#0000ff;fill-opacity:1;stroke:none;stroke-width:26;stroke-linecap:round;stroke-miterlimit:4;stroke-dasharray:none;stroke-dashoffset:0;stroke-opacity:1"
           id="rect4190-5-1-2"
           width="3.5433071"
           height="21.259842"
           x="874.09094"
           y="1284.3466" />
        <rect
           style="opacity:0.5;fill:#00ff00;fill-opacity:1;stroke:none;stroke-width:26;stroke-linecap:round;stroke-miterlimit:4;stroke-dasharray:none;stroke-dashoffset:0;stroke-opacity:1"
           id="rect4190-9-7"
           width="14.173228"
           height="7.0866141"
           x="803.22522"
           y="1269.2518" />
        <rect
           style="opacity:0.5;fill:#00ff00;fill-opacity:1;stroke:none;stroke-width:26;stroke-linecap:round;stroke-miterlimit:4;stroke-dasharray:none;stroke-dashoffset:0;stroke-opacity:1"
           id="rect4190-9-7-0"
           width="14.173228"
           height="7.0866141"
           x="877.63464"
           y="1269.2518" />
        <rect
           style="opacity:0.5;fill:#ff00ff;fill-opacity:1;stroke:none;stroke-width:26;stroke-linecap:round;stroke-miterlimit:4;stroke-dasharray:none;stroke-dashoffset:0;stroke-opacity:1"
           id="rect4220-9"
           width="10.629921"
           height="8.0078745"
           x="877.6347"
           y="1276.3385" />
        <rect
           style="opacity:0.5;fill:#ff00ff;fill-opacity:1;stroke:none;stroke-width:26;stroke-linecap:round;stroke-miterlimit:4;stroke-dasharray:none;stroke-dashoffset:0;stroke-opacity:1"
           id="rect4220-9-3"
           width="10.629921"
           height="8.0078745"
           x="806.76855"
           y="1276.3385" />
      </g>
    </g>
    <g
       id="g8331"
       transform="translate(-19.86486,-534.47415)">
      <g
         transform="translate(75.642656,-49.033902)"
         id="g4479">
        <rect
           style="opacity:0.5;fill:#0000ff;fill-opacity:1;stroke:none;stroke-width:26;stroke-linecap:round;stroke-miterlimit:4;stroke-dasharray:none;stroke-dashoffset:0;stroke-opacity:1"
           id="rect4190-0"
           width="81.496063"
           height="8.0078745"
           x="675.50195"
           y="1099.126" />
      </g>
      <rect
         y="1050.092"
         x="751.14459"
         height="8.0078745"
         width="21.259842"
         id="rect4220-9-3-6"
         style="opacity:0.5;fill:#ff00ff;fill-opacity:1;stroke:none;stroke-width:26;stroke-linecap:round;stroke-miterlimit:4;stroke-dasharray:none;stroke-dashoffset:0;stroke-opacity:1" />
      <rect
         y="1050.0909"
         x="811.3819"
         height="8.0078745"
         width="21.259842"
         id="rect4220-9-3-6-2"
         style="opacity:0.5;fill:#ff00ff;fill-opacity:1;stroke:none;stroke-width:26;stroke-linecap:round;stroke-miterlimit:4;stroke-dasharray:none;stroke-dashoffset:0;stroke-opacity:1" />
    </g>
    <g
       id="g16041"
       transform="translate(413.52827,-526.53581)">
      <rect
         ry="1.7716535"
         rx="1.7716535"
         y="1317.5355"
         x="331.92169"
         height="7.0866141"
         width="53.149605"
         id="rect4190-8-8-6"
         style="opacity:0.5;fill:#0000ff;fill-opacity:1;stroke:none;stroke-width:26;stroke-linecap:round;stroke-miterlimit:4;stroke-dasharray:none;stroke-dashoffset:0;stroke-opacity:1" />
      <rect
         ry="3.5433071"
         rx="3.5433071"
         y="1321.0789"
         x="261.05908"
         height="37.204723"
         width="194.8819"
         id="rect6820-7-5-22-6-6-1"
         style="opacity:0.5;fill:#ff0000;fill-opacity:1;stroke:none;stroke-width:26;stroke-linecap:round;stroke-miterlimit:4;stroke-dasharray:none;stroke-dashoffset:0;stroke-opacity:1" />
      <rect
         ry="3.5433071"
         rx="3.5433071"
         y="1321.0789"
         x="273.45758"
         height="24.80315"
         width="170.07874"
         id="rect6794-5-3-8-7-1-2"
         style="opacity:0.5;fill:#00ff00;fill-opacity:1;stroke:none;stroke-width:26;stroke-linecap:round;stroke-miterlimit:4;stroke-dasharray:none;stroke-dashoffset:0;stroke-opacity:1" />
      <rect
         ry="1.7716535"
         rx="1.7716535"
         y="1317.5355"
         x="317.7489"
         height="21.259842"
         width="3.5433071"
         id="rect4190-5-7-9"
         style="opacity:0.5;fill:#0000ff;fill-opacity:1;stroke:none;stroke-width:26;stroke-linecap:round;stroke-miterlimit:4;stroke-dasharray:none;stroke-dashoffset:0;stroke-opacity:1" />
      <rect
         ry="1.7716535"
         rx="1.7716535"
         y="1317.5355"
         x="395.70166"
         height="21.259842"
         width="3.5433071"
         id="rect4190-5-6-9-3"
         style="opacity:0.5;fill:#0000ff;fill-opacity:1;stroke:none;stroke-width:26;stroke-linecap:round;stroke-miterlimit:4;stroke-dasharray:none;stroke-dashoffset:0;stroke-opacity:1" />
      <rect
         ry="1.7716535"
         rx="1.7716535"
         y="1303.3624"
         x="328.37836"
         height="35.433071"
         width="3.5433071"
         id="rect4190-5-1-20-1"
         style="opacity:0.5;fill:#0000ff;fill-opacity:1;stroke:none;stroke-width:26;stroke-linecap:round;stroke-miterlimit:4;stroke-dasharray:none;stroke-dashoffset:0;stroke-opacity:1" />
      <rect
         ry="1.7716535"
         rx="1.7716535"
         y="1303.3624"
         x="385.07129"
         height="35.433071"
         width="3.5433071"
         id="rect4190-5-1-2-2-9"
         style="opacity:0.5;fill:#0000ff;fill-opacity:1;stroke:none;stroke-width:26;stroke-linecap:round;stroke-miterlimit:4;stroke-dasharray:none;stroke-dashoffset:0;stroke-opacity:1" />
      <rect
         y="1302.4409"
         x="314.20557"
         height="7.0866141"
         width="14.173228"
         id="rect4190-9-7-3-4"
         style="opacity:0.5;fill:#00ff00;fill-opacity:1;stroke:none;stroke-width:26;stroke-linecap:round;stroke-miterlimit:4;stroke-dasharray:none;stroke-dashoffset:0;stroke-opacity:1" />
      <rect
         y="1302.4409"
         x="388.61499"
         height="7.0866141"
         width="14.173228"
         id="rect4190-9-7-0-7-7"
         style="opacity:0.5;fill:#00ff00;fill-opacity:1;stroke:none;stroke-width:26;stroke-linecap:round;stroke-miterlimit:4;stroke-dasharray:none;stroke-dashoffset:0;stroke-opacity:1" />
      <rect
         y="1309.5276"
         x="388.61505"
         height="8.0078745"
         width="10.629921"
         id="rect4220-9-5-8"
         style="opacity:0.5;fill:#ff00ff;fill-opacity:1;stroke:none;stroke-width:26;stroke-linecap:round;stroke-miterlimit:4;stroke-dasharray:none;stroke-dashoffset:0;stroke-opacity:1" />
      <rect
         y="1309.5276"
         x="317.7489"
         height="8.0078745"
         width="10.629921"
         id="rect4220-9-3-9-4"
         style="opacity:0.5;fill:#ff00ff;fill-opacity:1;stroke:none;stroke-width:26;stroke-linecap:round;stroke-miterlimit:4;stroke-dasharray:none;stroke-dashoffset:0;stroke-opacity:1" />
      <rect
         y="1317.5355"
         x="319.52167"
         height="3.5433071"
         width="8.8582678"
         id="rect4190-8-2-5"
         style="opacity:0.5;fill:#0000ff;fill-opacity:1;stroke:none;stroke-width:26;stroke-linecap:round;stroke-miterlimit:4;stroke-dasharray:none;stroke-dashoffset:0;stroke-opacity:1" />
      <rect
         y="1317.5355"
         x="388.61615"
         height="3.5433071"
         width="8.8582678"
         id="rect4190-8-2-2-0"
         style="opacity:0.5;fill:#0000ff;fill-opacity:1;stroke:none;stroke-width:26;stroke-linecap:round;stroke-miterlimit:4;stroke-dasharray:none;stroke-dashoffset:0;stroke-opacity:1" />
    </g>
    <path
       style="opacity:0.5;fill:#00ff00;fill-opacity:1;stroke:none;stroke-width:26;stroke-linecap:round;stroke-miterlimit:4;stroke-dasharray:none;stroke-dashoffset:0;stroke-opacity:1"
       d="m 943.16308,693.615 c -1.3919,0 -2.702,0.658 -3.5372,1.7715 l -0.01,0 -46.5156,62.0215 0.008,0 a 4.4291339,4.4291339 0 0 0 -0.89258,2.6562 4.4291339,4.4291339 0 0 0 4.42968,4.4297 l 132.85942,0 0,-53.1641 c 0,-9.815 -7.8998,-17.7148 -17.7148,-17.7148 l -68.62894,0 z"
       id="rect4777-4"
       inkscape:connector-curvature="0" />
    <rect
       style="opacity:0.5;fill:#00ff00;fill-opacity:1;stroke:none;stroke-width:26;stroke-linecap:round;stroke-miterlimit:4;stroke-dasharray:none;stroke-dashoffset:0;stroke-opacity:1"
       id="rect4190-9-7-3-2-4"
       width="14.173228"
       height="7.0866141"
       x="960.88922"
       y="674.13232" />
    <path
       inkscape:connector-curvature="0"
       style="opacity:0.5;fill:#00ff00;fill-opacity:1;stroke:none;stroke-width:26;stroke-linecap:round;stroke-miterlimit:4;stroke-dasharray:none;stroke-dashoffset:0;stroke-opacity:1"
       d="m 985.66539,673.9616 0,0 -5.31445,7.0859 5.31445,0 8.85742,0 0,-5.3164 c 0,-0.9815 -0.78998,-1.7715 -1.77148,-1.7715 l -7.08594,0 z"
       id="rect4777-3" />
    <circle
       style="opacity:0.5;fill:#ff0000;fill-opacity:1;stroke:none;stroke-width:26;stroke-linecap:round;stroke-miterlimit:4;stroke-dasharray:none;stroke-dashoffset:0;stroke-opacity:1"
       id="path4820-0"
       cx="981.31342"
       cy="680.53308"
       r="0.44291338" />
    <circle
       style="opacity:0.5;fill:#ff0000;fill-opacity:1;stroke:none;stroke-width:26;stroke-linecap:round;stroke-miterlimit:4;stroke-dasharray:none;stroke-dashoffset:0;stroke-opacity:1"
       id="path4820-5-7"
       cx="985.89001"
       cy="674.40454"
       r="0.44291338" />
    <rect
       style="opacity:0.5;fill:#ff0000;fill-opacity:1;stroke:none;stroke-width:26;stroke-linecap:round;stroke-miterlimit:4;stroke-dasharray:none;stroke-dashoffset:0;stroke-opacity:1"
       id="rect4848-8"
       width="0.44291338"
       height="0.22145669"
       x="985.44708"
       y="674.18311" />
    <rect
       style="opacity:0.5;fill:#ff0000;fill-opacity:1;stroke:none;stroke-width:26;stroke-linecap:round;stroke-miterlimit:4;stroke-dasharray:none;stroke-dashoffset:0;stroke-opacity:1"
       id="rect4848-5-6"
       width="0.44291338"
       height="0.44291338"
       x="985.64905"
       y="673.1178" />
    <g
       id="g16056"
       transform="translate(393.02831,-524.25332)">
      <rect
         ry="1.7716535"
         rx="1.7716535"
         y="1238.2228"
         x="352.42169"
         height="7.0866141"
         width="53.149605"
         id="rect4190-8-8-2"
         style="opacity:0.5;fill:#0000ff;fill-opacity:1;stroke:none;stroke-width:26;stroke-linecap:round;stroke-miterlimit:4;stroke-dasharray:none;stroke-dashoffset:0;stroke-opacity:1" />
      <path
         id="rect6820-7-5-22-6-6-5"
         d="m 285.10156,1241.7656 c -1.96299,0 -3.54297,1.5799 -3.54297,3.5429 l 0,30.1192 c 0,1.963 1.57998,3.5429 3.54297,3.5429 l 187.79688,0 c 1.96299,0 3.54297,-1.5799 3.54297,-3.5429 l 0,-30.1192 c 0,-1.963 -1.57998,-3.5429 -3.54297,-3.5429 l -49.61133,0 0,21.2597 -17.7168,0 0,-21.2597 -53.14843,0 0,21.2597 -17.7168,0 0,-21.2597 -49.60352,0 z"
         style="opacity:0.5;fill:#ff0000;fill-opacity:1;stroke:none;stroke-width:26;stroke-linecap:round;stroke-miterlimit:4;stroke-dasharray:none;stroke-dashoffset:0;stroke-opacity:1"
         inkscape:connector-curvature="0" />
      <path
         id="rect6794-5-3-8-7-1-4"
         d="m 340.02148,1238.2226 c 0.9815,0 1.77149,0.79 1.77149,1.7715 l 0,17.7168 c 0,0.9815 -0.78999,1.7714 -1.77149,1.7714 -0.98149,0 -1.77343,-0.7899 -1.77343,-1.7714 l 0,-15.9453 -40.74805,0 c -1.96299,0 -3.54297,1.5799 -3.54297,3.5429 l 0,17.7168 c 0,1.963 1.57998,3.543 3.54297,3.543 l 162.99219,0 c 1.96299,0 3.54492,-1.58 3.54492,-3.543 l 0,-17.7168 c 0,-1.963 -1.58193,-3.5429 -3.54492,-3.5429 l -40.74805,0 0,15.9453 c 0,0.9815 -0.78999,1.7714 -1.77148,1.7714 -0.9815,0 -1.77149,-0.7899 -1.77149,-1.7714 l 0,-17.7168 c 0,-0.9815 0.78999,-1.7715 1.77149,-1.7715 l -8.85743,0 0,3.543 0,15.9453 c 0,0.9815 -0.78998,1.7714 -1.77148,1.7714 -0.9815,0 -1.77344,-0.7899 -1.77344,-1.7714 l 0,-15.9453 -53.14843,0 0,15.9453 c 0,0.9815 -0.78999,1.7714 -1.77149,1.7714 -0.9815,0 -1.77148,-0.7899 -1.77148,-1.7714 l 0,-19.4883 -8.85743,0 z"
         style="opacity:0.5;fill:#00ff00;fill-opacity:1;stroke:none;stroke-width:26;stroke-linecap:round;stroke-miterlimit:4;stroke-dasharray:none;stroke-dashoffset:0;stroke-opacity:1"
         inkscape:connector-curvature="0" />
      <path
         sodipodi:nodetypes="cccccc"
         inkscape:connector-curvature="0"
         id="rect4220-9-3-9-9-7"
         d="m 338.24941,1230.2148 0,6.2363 c 0,0.9815 0.78999,1.7715 1.77148,1.7715 l 8.85742,0 0,-8.0078 z"
         style="opacity:0.5;fill:#ff00ff;fill-opacity:1;stroke:none;stroke-width:26;stroke-linecap:round;stroke-miterlimit:4;stroke-dasharray:none;stroke-dashoffset:0;stroke-opacity:1" />
      <path
         sodipodi:nodetypes="cccccc"
         inkscape:connector-curvature="0"
         id="rect4220-9-3-9-9-6-4"
         d="m 419.74446,1230.2148 0,6.2363 c 0,0.9815 -0.78999,1.7715 -1.77148,1.7715 l -8.85742,0 0,-8.0078 z"
         style="opacity:0.5;fill:#ff00ff;fill-opacity:1;stroke:none;stroke-width:26;stroke-linecap:round;stroke-miterlimit:4;stroke-dasharray:none;stroke-dashoffset:0;stroke-opacity:1" />
      <path
         id="rect4777-4-4-8"
         d="m 340.24445,1223.1268 c -0.13919,2e-4 -0.27019,0.066 -0.35371,0.1771 l -8e-4,0 -4.65156,6.2022 8e-4,0 a 0.44291339,0.44291339 0 0 0 -0.0893,0.2656 0.44291339,0.44291339 0 0 0 0.44297,0.443 l 13.28594,0 0,-5.3164 c 0,-0.9815 -0.78998,-1.7715 -1.77148,-1.7715 l -6.8629,0 z"
         style="opacity:0.5;fill:#00ff00;fill-opacity:1;stroke:none;stroke-width:26;stroke-linecap:round;stroke-miterlimit:4;stroke-dasharray:none;stroke-dashoffset:0;stroke-opacity:1"
         inkscape:connector-curvature="0" />
      <path
         id="rect4777-4-4-5-8"
         d="m 417.74933,1223.1268 c 0.13919,2e-4 0.27019,0.066 0.35371,0.1771 l 8e-4,0 4.65156,6.2022 -8e-4,0 a 0.44291339,0.44291339 0 0 1 0.0893,0.2656 0.44291339,0.44291339 0 0 1 -0.44297,0.443 l -13.28594,0 0,-5.3164 c 0,-0.9815 0.78998,-1.7715 1.77148,-1.7715 l 6.8629,0 z"
         style="opacity:0.5;fill:#00ff00;fill-opacity:1;stroke:none;stroke-width:26;stroke-linecap:round;stroke-miterlimit:4;stroke-dasharray:none;stroke-dashoffset:0;stroke-opacity:1"
         inkscape:connector-curvature="0" />
    </g>
    <g
       id="g16065"
       transform="translate(384.46407,-538.01233)">
      <path
         inkscape:connector-curvature="0"
         id="rect4190-8-8"
         d="m 348.80834,1159.8573 c -0.13919,2e-4 -0.27,0.067 -0.35352,0.1778 l -4.65234,6.2011 a 0.44291339,0.44291339 0 0 0 -0.0879,0.2657 0.44291339,0.44291339 0 0 0 0.44336,0.4433 l 2.65625,0 0,6.2363 c 0,0.9816 0.78999,1.7715 1.77148,1.7715 0.9815,0 1.77149,0.79 1.77149,1.7715 l 0,17.7168 c 0,0.9815 -0.78999,1.7715 -1.77149,1.7715 -0.98149,0 -1.77343,-0.79 -1.77343,-1.7715 0.002,-4.7245 0.002,-14.1758 0.002,-14.1758 -9e-5,-0.9783 -0.79315,-1.7713 -1.77148,-1.7715 0,0 -25.9868,0 -38.97852,0 l -12.39844,0 c -1.96299,0 -3.54297,1.58 -3.54297,3.543 l 0,30.1191 c 0,1.963 1.57998,3.543 3.54297,3.543 l 187.79688,0 c 1.96299,0 3.54297,-1.58 3.54297,-3.543 l 0,-30.1191 c 0,-1.963 -1.57998,-3.543 -3.54297,-3.543 l -12.40625,0 -38.97657,0 a 1.7716535,1.7716535 0 0 0 -1.77148,1.7715 l 0,14.1738 c 0,0.9815 -0.78999,1.7715 -1.77148,1.7715 -0.9815,0 -1.77149,-0.79 -1.77149,-1.7715 l 0,-17.7168 c 0,-0.9815 0.78999,-1.7715 1.77149,-1.7715 0.98149,0 1.77148,-0.7899 1.77148,-1.7715 l 0,-6.2363 2.65625,0 a 0.44291339,0.44291339 0 0 0 0.44336,-0.4433 0.44291339,0.44291339 0 0 0 -0.0898,-0.2657 l 0.002,0 -4.65234,-6.2011 c -0.0835,-0.1111 -0.21433,-0.1776 -0.35352,-0.1778 l -6.86328,0 c -0.9815,0 -1.77149,0.79 -1.77149,1.7715 l 0,5.3164 0,8.0078 0,3.543 0,15.9453 c 0,0.9815 -0.78998,1.7715 -1.77148,1.7715 -0.9815,0 -1.77344,-0.79 -1.77344,-1.7715 l 0,-14.1543 c 8e-5,-0.01 0.002,-0.013 0.002,-0.02 l 0,-3.543 c 0,-0.9815 -0.79195,-1.7715 -1.77344,-1.7715 l -49.60547,0 c -0.9815,0 -1.77148,0.79 -1.77148,1.7715 l 0,1.7715 0,1.7715 0,14.1738 c 0,0.9815 -0.78999,1.7715 -1.77149,1.7715 -0.9815,0 -1.77148,-0.79 -1.77148,-1.7715 l 0,-19.4883 0,-8.0078 0,-5.3164 c 0,-0.9815 -0.78999,-1.7715 -1.77149,-1.7715 l -6.86328,0 z"
         style="opacity:0.5;fill:#0000ff;fill-opacity:1;stroke:none;stroke-width:26;stroke-linecap:round;stroke-miterlimit:4;stroke-dasharray:none;stroke-dashoffset:0;stroke-opacity:1" />
      <rect
         ry="3.5433071"
         rx="3.5433071"
         y="1178.4945"
         x="302.5249"
         height="24.80315"
         width="170.07874"
         id="rect6794-5-3-8-7-1-2-6"
         style="opacity:0.5;fill:#00ff00;fill-opacity:1;stroke:none;stroke-width:26;stroke-linecap:round;stroke-miterlimit:4;stroke-dasharray:none;stroke-dashoffset:0;stroke-opacity:1" />
    </g>
    <g
       id="g17771"
       transform="translate(-106,-6)">
      <rect
         ry="3.5433071"
         rx="3.5433071"
         y="809.07092"
         x="351.60632"
         height="92.125984"
         width="159.44882"
         id="rect6790"
         style="opacity:0.5;fill:#00ff00;fill-opacity:1;stroke:none;stroke-width:26;stroke-linecap:round;stroke-miterlimit:4;stroke-dasharray:none;stroke-dashoffset:0;stroke-opacity:1" />
      <rect
         ry="3.5433071"
         rx="3.5433071"
         transform="matrix(0.70710678,0.70710678,-0.70710678,0.70710678,0,0)"
         y="182.16669"
         x="566.4126"
         height="49.6063"
         width="194.8819"
         id="rect6820-7"
         style="opacity:0.5;fill:#ff0000;fill-opacity:1;stroke:none;stroke-width:26;stroke-linecap:round;stroke-miterlimit:4;stroke-dasharray:none;stroke-dashoffset:0;stroke-opacity:1" />
      <rect
         ry="3.5433071"
         rx="3.5433071"
         transform="matrix(0.70710678,0.70710678,-0.70710678,0.70710678,0,0)"
         y="194.56915"
         x="578.81641"
         height="24.80315"
         width="170.07874"
         id="rect6794-5"
         style="opacity:0.5;fill:#00ff00;fill-opacity:1;stroke:none;stroke-width:26;stroke-linecap:round;stroke-miterlimit:4;stroke-dasharray:none;stroke-dashoffset:0;stroke-opacity:1" />
      <rect
         ry="3.5433071"
         rx="3.5433071"
         transform="matrix(0.70710678,-0.70710678,0.70710678,0.70710678,0,0)"
         y="792.16125"
         x="-151.29987"
         height="49.6063"
         width="194.8819"
         id="rect6820-7-5"
         style="opacity:0.5;fill:#ff0000;fill-opacity:1;stroke:none;stroke-width:26;stroke-linecap:round;stroke-miterlimit:4;stroke-dasharray:none;stroke-dashoffset:0;stroke-opacity:1" />
      <rect
         ry="3.5433071"
         rx="3.5433071"
         transform="matrix(0.70710678,-0.70710678,0.70710678,0.70710678,0,0)"
         y="804.56287"
         x="-138.90131"
         height="24.80315"
         width="170.07874"
         id="rect6794-5-3"
         style="opacity:0.5;fill:#00ff00;fill-opacity:1;stroke:none;stroke-width:26;stroke-linecap:round;stroke-miterlimit:4;stroke-dasharray:none;stroke-dashoffset:0;stroke-opacity:1" />
      <path
         inkscape:connector-curvature="0"
         id="rect6820-7-5-2"
         d="m 374.42578,687.2053 0,166.5507 54.61524,0 4.57812,0 54.61716,0 0,-166.5507 -54.61716,0 -4.57812,0 -54.61524,0 z"
         style="opacity:0.5;fill:#ff0000;fill-opacity:1;stroke:none;stroke-width:26;stroke-linecap:round;stroke-miterlimit:4;stroke-dasharray:none;stroke-dashoffset:0;stroke-opacity:1" />
      <path
         inkscape:connector-curvature="0"
         id="rect6938"
         d="m 387.6793,688.953 43.65141,43.6514 43.65139,-43.6514 -21.8264,-21.8264 a 30.865747,30.865747 0 0 1 -43.65,0 l -21.8264,21.8264 z"
         style="opacity:0.5;fill:#0000ff;fill-opacity:1;stroke:none;stroke-width:26;stroke-linecap:round;stroke-miterlimit:4;stroke-dasharray:none;stroke-dashoffset:0;stroke-opacity:1" />
      <path
         inkscape:connector-curvature="0"
         id="rect6978-7"
         d="m 488.2363,684.1232 0,30.8653 a 30.865747,30.865747 0 0 1 9.0547,-21.8106 l -9.0547,-9.0547 z"
         style="opacity:0.5;fill:#0000ff;fill-opacity:1;stroke:none;stroke-width:26;stroke-linecap:round;stroke-miterlimit:4;stroke-dasharray:none;stroke-dashoffset:0;stroke-opacity:1" />
      <path
         inkscape:connector-curvature="0"
         id="rect6978"
         d="m 374.42578,684.1232 -9.05469,9.0547 a 30.865747,30.865747 0 0 1 9.05469,21.8106 l 0,-30.8653 z"
         style="opacity:0.5;fill:#0000ff;fill-opacity:1;stroke:none;stroke-width:26;stroke-linecap:round;stroke-miterlimit:4;stroke-dasharray:none;stroke-dashoffset:0;stroke-opacity:1" />
      <path
         inkscape:connector-curvature="0"
         id="rect7117"
         d="m 374.42578,801.983 a 7.0866141,7.0866141 0 0 1 -7.08594,7.0879 l 7.08594,0 0,-7.0879 z"
         style="opacity:0.5;fill:#0000ff;fill-opacity:1;stroke:none;stroke-width:26;stroke-linecap:round;stroke-miterlimit:4;stroke-dasharray:none;stroke-dashoffset:0;stroke-opacity:1" />
      <path
         inkscape:connector-curvature="0"
         id="rect7117-7"
         d="m 488.2363,801.983 a 7.0866141,7.0866141 0 0 0 7.086,7.0879 l -7.086,0 0,-7.0879 z"
         style="opacity:0.5;fill:#0000ff;fill-opacity:1;stroke:none;stroke-width:26;stroke-linecap:round;stroke-miterlimit:4;stroke-dasharray:none;stroke-dashoffset:0;stroke-opacity:1" />
      <rect
         ry="3.5433071"
         rx="3.5433071"
         y="794.89771"
         x="420.70081"
         height="14.173228"
         width="21.259842"
         id="rect8683"
         style="opacity:0.5;fill:#0000ff;fill-opacity:1;stroke:none;stroke-width:26;stroke-linecap:round;stroke-miterlimit:4;stroke-dasharray:none;stroke-dashoffset:0;stroke-opacity:1" />
      <rect
         transform="matrix(0.70710678,0.70710678,-0.70710678,0.70710678,0,0)"
         y="182.16669"
         x="750.66455"
         height="49.6063"
         width="10.629921"
         id="rect6820-7-5-22-68"
         style="opacity:0.5;fill:#ff0000;fill-opacity:1;stroke:none;stroke-width:26;stroke-linecap:round;stroke-miterlimit:4;stroke-dasharray:none;stroke-dashoffset:0;stroke-opacity:1" />
      <rect
         transform="matrix(-0.70710678,0.70710678,0.70710678,0.70710678,0,0)"
         y="792.16125"
         x="140.66998"
         height="49.6063"
         width="10.629921"
         id="rect6820-7-5-22-68-2"
         style="opacity:0.5;fill:#ff0000;fill-opacity:1;stroke:none;stroke-width:26;stroke-linecap:round;stroke-miterlimit:4;stroke-dasharray:none;stroke-dashoffset:0;stroke-opacity:1" />
      <rect
         transform="matrix(-0.70710678,0.70710678,-0.70710678,-0.70710678,0,0)"
         y="-820.9679"
         x="13.113397"
         height="8.0078745"
         width="81.496063"
         id="rect4190-0-7"
         style="opacity:0.5;fill:#0000ff;fill-opacity:1;stroke:none;stroke-width:26;stroke-linecap:round;stroke-miterlimit:4;stroke-dasharray:none;stroke-dashoffset:0;stroke-opacity:1" />
      <rect
         transform="matrix(-0.70710678,0.70710678,-0.70710678,-0.70710678,0,0)"
         y="-820.9679"
         x="13.113397"
         height="8.0078745"
         width="21.259842"
         id="rect4220-9-3-6-1"
         style="opacity:0.5;fill:#ff00ff;fill-opacity:1;stroke:none;stroke-width:26;stroke-linecap:round;stroke-miterlimit:4;stroke-dasharray:none;stroke-dashoffset:0;stroke-opacity:1" />
      <rect
         transform="matrix(-0.70710678,0.70710678,-0.70710678,-0.70710678,0,0)"
         y="-820.96899"
         x="73.350639"
         height="8.0078745"
         width="21.259842"
         id="rect4220-9-3-6-2-7"
         style="opacity:0.5;fill:#ff00ff;fill-opacity:1;stroke:none;stroke-width:26;stroke-linecap:round;stroke-miterlimit:4;stroke-dasharray:none;stroke-dashoffset:0;stroke-opacity:1" />
    </g>
    <g
       id="g16069"
       transform="translate(397.06501,-524.68631)">
      <path
         sodipodi:nodetypes="ccccccsssssccccsssssssscccsssssscccccccsscccssscsssssccsssccsscc"
         inkscape:connector-curvature="0"
         id="rect4190-8-8-4"
         d="m 336.2074,1069.5008 c -0.13919,2e-4 -0.27,0.067 -0.35352,0.1778 l -4.65234,6.2011 c -0.0572,0.077 -0.0881,0.17 -0.0879,0.2657 -2.1e-4,0.2449 0.19842,0.4435 0.44336,0.4433 l 2.65625,0 0,6.2363 c 0,0.9816 0.78999,1.7715 1.77148,1.7715 0.9815,0 1.77149,0.79 1.77149,1.7715 l 0,14.1741 c 0,0.9815 -0.78999,1.7715 -1.77149,1.7715 -0.98149,0 -1.77343,-0.79 -1.77343,-1.7715 0.002,-4.7245 0.002,-10.6331 0.002,-10.6331 -9e-5,-0.9783 -0.79315,-1.7713 -1.77148,-1.7715 l -38.97852,0 -12.39844,0 c -1.96299,0 -3.54297,1.58 -3.54297,3.543 l 0,30.1191 c 0,1.963 1.57998,3.543 3.54297,3.543 l 187.79688,0 c 1.96299,0 3.54297,-1.58 3.54297,-3.543 l 0,-30.1191 c 0,-1.963 -1.57998,-3.543 -3.54297,-3.543 l -12.40625,0 -38.97657,0 c -0.97833,10e-5 -1.7714,0.7932 -1.77148,1.7715 l 0,10.6311 c 0,0.9815 -0.78999,1.7715 -1.77148,1.7715 -0.9815,0 -1.77149,-0.79 -1.77149,-1.7715 l 0,-14.1741 c 0,-0.9815 0.78999,-1.7715 1.77149,-1.7715 0.98149,0 1.77148,-0.7899 1.77148,-1.7715 l 0,-6.2363 2.65625,0 c 0.24494,2e-4 0.44357,-0.1984 0.44336,-0.4433 -3.6e-4,-0.096 -0.0319,-0.1892 -0.0898,-0.2657 l 0.002,0 -4.65234,-6.2011 c -0.0835,-0.1111 -0.21433,-0.1776 -0.35352,-0.1778 l -10.40608,0 c -0.9815,2e-4 -1.77149,0.79 -1.77149,1.7715 l 0,5.3164 0,8.0078 0,3.543 0,12.4026 c 0,0.9815 -0.78998,1.7715 -1.77148,1.7715 -0.9815,0 -1.77344,-0.79 -1.77344,-1.7715 l 0,-10.6116 c 8e-5,-0.01 0.002,-0.013 0.002,-0.02 l 0,-3.543 c 0,-0.9815 -0.79195,-1.7714 -1.77344,-1.7715 l -42.5194,0 c -0.9815,-10e-5 -1.77148,0.79 -1.77148,1.7715 l 0,1.7715 0,1.7715 0,10.6311 c 0,0.9815 -0.78999,1.7715 -1.77149,1.7715 -0.9815,0 -1.77148,-0.79 -1.77148,-1.7715 l 0,-15.9456 0,-8.0078 0,-5.3164 c 0,-0.9815 -0.78999,-1.7717 -1.77149,-1.7715 l -10.40655,0 z"
         style="opacity:0.5;fill:#0000ff;fill-opacity:1;stroke:none;stroke-width:26;stroke-linecap:round;stroke-miterlimit:4;stroke-dasharray:none;stroke-dashoffset:0;stroke-opacity:1" />
      <g
         transform="translate(2.3180453,-53.645084)"
         id="g8378">
        <rect
           style="opacity:0.5;fill:#00ff00;fill-opacity:1;stroke:none;stroke-width:26;stroke-linecap:round;stroke-miterlimit:4;stroke-dasharray:none;stroke-dashoffset:0;stroke-opacity:1"
           id="rect6794-5-3-8-7-1-2-2"
           width="170.07874"
           height="24.80315"
           x="287.6059"
           y="1141.7841"
           rx="3.5433071"
           ry="3.5433071" />
        <path
           style="opacity:0.5;fill:#00ff00;fill-opacity:1;stroke:none;stroke-width:0.5;stroke-linecap:round;stroke-miterlimit:4;stroke-dasharray:none;stroke-dashoffset:0;stroke-opacity:1"
           d="m 454.14132,1141.7841 c 1.96299,0 3.54331,1.5803 3.54331,3.5433 l 0,17.7165 c 0,1.963 -1.58032,3.5433 -3.54331,3.5433 l -162.99212,0 c -1.96299,0 -3.54331,-1.5803 -3.54331,-3.5433 l 0,-17.7165 c 0,-1.963 1.58032,-3.5433 3.54331,-3.5433"
           id="rect6794-5-3-8-7-1-2-2-7"
           inkscape:connector-curvature="0"
           sodipodi:nodetypes="cssssssc" />
      </g>
    </g>
  </g>
</svg>
