<?xml version="1.0" encoding="UTF-8" standalone="no"?>
<!-- Created with Inkscape (http://www.inkscape.org/) -->

<svg
   xmlns:dc="http://purl.org/dc/elements/1.1/"
   xmlns:cc="http://creativecommons.org/ns#"
   xmlns:rdf="http://www.w3.org/1999/02/22-rdf-syntax-ns#"
   xmlns:svg="http://www.w3.org/2000/svg"
   xmlns="http://www.w3.org/2000/svg"
   xmlns:sodipodi="http://sodipodi.sourceforge.net/DTD/sodipodi-0.dtd"
   xmlns:inkscape="http://www.inkscape.org/namespaces/inkscape"
   width="104.53688mm"
   height="77.035957mm"
   viewBox="0 0 370.40627 272.96205"
   id="svg6533"
   version="1.1"
   inkscape:version="0.91 r13725"
   sodipodi:docname="antenna-mount-production-2.svg">
  <defs
     id="defs6535" />
  <sodipodi:namedview
     id="base"
     pagecolor="#ffffff"
     bordercolor="#666666"
     borderopacity="1.0"
     inkscape:pageopacity="0.0"
     inkscape:pageshadow="2"
     inkscape:zoom="7.8039062"
     inkscape:cx="110.27964"
     inkscape:cy="18.389336"
     inkscape:document-units="mm"
     inkscape:current-layer="layer1"
     showgrid="false"
     fit-margin-top="0"
     fit-margin-left="0"
     fit-margin-right="0"
     fit-margin-bottom="0"
     inkscape:window-width="2495"
     inkscape:window-height="1576"
     inkscape:window-x="65"
     inkscape:window-y="24"
     inkscape:window-maximized="1" />
  <metadata
     id="metadata6538">
    <rdf:RDF>
      <cc:Work
         rdf:about="">
        <dc:format>image/svg+xml</dc:format>
        <dc:type
           rdf:resource="http://purl.org/dc/dcmitype/StillImage" />
        <dc:title></dc:title>
      </cc:Work>
    </rdf:RDF>
  </metadata>
  <g
     inkscape:label="Layer 1"
     inkscape:groupmode="layer"
     id="layer1"
     transform="translate(-18.2847,-539.14676)">
    <path
       inkscape:connector-curvature="0"
       style="opacity:1;fill:none;fill-opacity:1;stroke:#0000ff;stroke-width:0.03543307;stroke-linecap:round;stroke-miterlimit:4;stroke-dasharray:none;stroke-dashoffset:0;stroke-opacity:1"
       d="m 198.99174,743.86472 c -1.963,0 -3.54297,1.58 -3.54297,3.543 l 0,11.5898 a 3.5436458,3.5436532 0 0 1 -3.54102,3.5039 l -170.08008,0 c -1.96299,0 -3.54293,1.5819 -3.54297,3.5449 l 0,42.5196 c 0,1.963 1.57998,3.5429 3.54297,3.5429 l 187.79493,0 c 1.96299,0 3.54296,-1.5799 3.54296,-3.5429 l 0,-21.2617 a 14.173228,14.173228 0 0 1 14.17188,-14.1719 l 28.34766,0 5.31445,0 c 0.9815,0 1.77148,-0.79 1.77148,-1.7715 l 0,-6.8633 c -2e-4,-0.1392 -0.0647,-0.27 -0.17578,-0.3535 l -6.20312,-4.6524 a 0.44291339,0.44291339 0 0 0 -0.26563,-0.088 0.44291339,0.44291339 0 0 0 -0.4414,0.4121 l 0,1.7656 -10.63086,0.9219 0,0 -10.62891,0 0,-8.0078 10.62891,0 10.63086,0.9219 0,1.7676 a 0.44291339,0.44291339 0 0 0 0.4414,0.4101 0.44291339,0.44291339 0 0 0 0.26563,-0.088 l 6.20312,-4.6523 c 0.1111,-0.083 0.17558,-0.2143 0.17578,-0.3535 l 0,-6.8633 c 0,-0.9815 -0.78998,-1.7715 -1.77148,-1.7715 l -5.31445,0 -0.002,0 -56.6914,0 z m 8.85937,10.6289 1.77149,0 1.77148,0 1.77148,0 0,1.7715 0,4.4648 0,1.7735 -3.54296,0 0,0 -1.77149,0 c -0.98149,0 -1.77148,-0.79 -1.77148,-1.7715 l 0,-4.4648 c 0,-0.9815 0.78999,-1.7715 1.77148,-1.7715 z"
       id="rect6820-7-7-1-7" />
    <rect
       style="opacity:1;fill:none;fill-opacity:1;stroke:#ff0000;stroke-width:0.03543307;stroke-linecap:round;stroke-miterlimit:4;stroke-dasharray:none;stroke-dashoffset:0;stroke-opacity:1"
       id="rect6794-5-36-0-7"
       width="170.07874"
       height="24.80315"
       x="30.688131"
       y="774.90485"
       rx="3.5433071"
       ry="3.5433071" />
    <path
       inkscape:connector-curvature="0"
       style="opacity:1;fill:none;fill-opacity:1;stroke:#0000ff;stroke-width:0.03543307;stroke-linecap:round;stroke-miterlimit:4;stroke-dasharray:none;stroke-dashoffset:0;stroke-opacity:1"
       d="m 387.6499,781.00117 c 1.38805,-1.38804 1.38803,-3.62248 -2e-5,-5.01053 l -127.77914,-127.77915 -5.0119,-5.0119 -2.50521,-2.50521 0.001,-0.001 a 30.865747,30.865747 0 0 1 -4e-5,-43.65009 l 0,0 2.50525,-2.50525 c 1.38805,-1.38805 1.38803,-3.62248 -2e-5,-5.01054 l -2.34229,-2.34229 a 1.7716535,1.7716535 0 0 0 -2.50527,-10e-6 l -17.53956,17.53956 c -0.69402,0.69402 -1.81124,0.69401 -2.50527,-10e-6 -0.69402,-0.69403 -0.69403,-1.81125 -1e-5,-2.50527 l 17.53956,-17.53956 0,0 a 1.7716535,1.7716535 0 0 0 -10e-6,-2.50527 l -0.16157,-0.16157 -3.27455,-3.27454 c -0.0986,-0.0983 -0.23801,-0.14651 -0.3756,-0.12701 l -7.67601,1.09652 0,0 a 0.44291339,0.44291339 0 0 0 -0.25147,0.12419 0.44291339,0.44291339 0 0 0 -0.0207,0.60352 l 1.24854,1.24854 -6.86396,8.16758 -7.51715,7.51716 -5.66237,-5.66237 7.51715,-7.51716 8.16766,-6.86389 1.24846,1.24847 a 0.44291339,0.44291339 0 0 0 0.60352,-0.0207 0.44291339,0.44291339 0 0 0 0.12419,-0.25147 l 1.09794,-7.6746 0,0 c 0.0185,-0.13866 -0.0275,-0.27575 -0.12574,-0.37432 l -3.27447,-3.27447 -0.16299,-0.16299 a 1.7716535,1.7716535 0 0 0 -2.50526,-2e-5 l -17.53957,17.53957 c -0.69402,0.69402 -1.81124,0.69401 -2.50526,-2e-5 -0.69403,-0.69402 -0.69396,-1.81117 5e-5,-2.50519 l 17.53957,-17.53957 a 1.7716535,1.7716535 0 0 0 -2e-5,-2.50526 l -2.3437,-2.34371 c -1.38805,-1.38805 -3.62249,-1.38807 -5.01054,-2e-5 l -2.50664,2.50664 c -0.006,0.006 -0.0118,0.0118 -0.018,0.018 a 30.865747,30.865747 0 0 1 -21.75873,9.03632 l -85.08899,-0.001 0.001,-0.001 7.08763,-10e-6 a 7.0866141,7.0866141 0 0 1 -7.08768,-7.08486 l -10e-6,-21.2436 c 3e-5,-1.96296 -1.58078,-3.54377 -3.54381,-3.54381 l -85.037832,4e-5 c -1.963034,-3e-5 -3.543856,1.58079 -3.543821,3.54383 l -0.0024,152.35986 c -2.8e-5,1.96295 1.579436,3.54242 3.542464,3.54246 l 85.039249,0.001 c 1.96296,-3e-5 3.54379,-1.58086 3.54382,-3.54382 l 0.001,-21.24498 a 7.0866141,7.0866141 0 0 1 7.0283,-7.08345 l 78.02756,-2e-5 a 30.865747,30.865747 0 0 1 21.81122,9.05568 l 0.001,-0.001 2.50111,2.5011 5.0119,5.01191 127.77915,127.77914 c 1.38805,1.38805 3.62387,1.38669 5.01192,-0.001 L 387.65,781.00122 Z m -180.06918,-168.60078 -1.25262,1.25262 -1.25263,1.25263 -1.25263,1.25263 c -0.69402,0.69402 -1.81117,0.69408 -2.5052,6e-5 l -3.15716,-3.15716 c -0.69402,-0.69403 -0.69403,-1.81125 -1e-5,-2.50527 l 1.25263,-1.25263 1.25263,-1.25263 1.25262,-1.25262 1.25264,1.25264 3.15716,3.15716 1.25257,1.25257 z m -84.03383,16.06319 c -0.64046,0.64046 -1.52516,1.03442 -2.50663,1.03444 l -7.08622,0.001 c -1.96302,-4e-5 -3.54383,-1.58085 -3.54388,-3.54387 l 7e-5,-14.17247 c -4e-5,-1.96302 1.58079,-3.54385 3.54382,-3.54382 l 7.08483,-4e-5 c 1.96303,4e-5 3.54384,1.58084 3.5438,3.54381 l 2e-5,14.17252 c -2e-5,0.98149 -0.39537,1.86757 -1.03581,2.50801 z"
       id="rect6820-7-5-2-4-6" />
    <rect
       style="opacity:1;fill:none;fill-opacity:1;stroke:#ff0000;stroke-width:0.03543307;stroke-linecap:round;stroke-miterlimit:4;stroke-dasharray:none;stroke-dashoffset:0;stroke-opacity:1"
       id="rect6794-5-6-1"
       width="170.07874"
       height="24.80315"
       x="-813.95825"
       y="287.00113"
       transform="matrix(-0.70710678,-0.70710678,-0.70710678,0.70710678,0,0)"
       rx="3.5433071"
       ry="3.5433071" />
  </g>
</svg>
