<?xml version="1.0" encoding="UTF-8" standalone="no"?>
<!-- Created with Inkscape (http://www.inkscape.org/) -->

<svg
   xmlns:dc="http://purl.org/dc/elements/1.1/"
   xmlns:cc="http://creativecommons.org/ns#"
   xmlns:rdf="http://www.w3.org/1999/02/22-rdf-syntax-ns#"
   xmlns:svg="http://www.w3.org/2000/svg"
   xmlns="http://www.w3.org/2000/svg"
   xmlns:sodipodi="http://sodipodi.sourceforge.net/DTD/sodipodi-0.dtd"
   xmlns:inkscape="http://www.inkscape.org/namespaces/inkscape"
   width="197.43262mm"
   height="197.43262mm"
   viewBox="0 0 699.56441 699.56439"
   id="svg2"
   version="1.1"
   inkscape:version="0.91 r13725"
   sodipodi:docname="arm-numbering.svg"
   inkscape:export-filename="/home/ghawkins/git/arf-drone/images/assembly/frame/text4166.png"
   inkscape:export-xdpi="65.86956"
   inkscape:export-ydpi="65.86956">
  <title
     id="title5397">PX4/ArduCopter arm numbering and motor directions</title>
  <defs
     id="defs4" />
  <sodipodi:namedview
     id="base"
     pagecolor="#ffffff"
     bordercolor="#666666"
     borderopacity="1.0"
     inkscape:pageopacity="0.0"
     inkscape:pageshadow="2"
     inkscape:zoom="0.5"
     inkscape:cx="986.37636"
     inkscape:cy="77.431618"
     inkscape:document-units="mm"
     inkscape:current-layer="layer1"
     showgrid="false"
     inkscape:window-width="2495"
     inkscape:window-height="1576"
     inkscape:window-x="65"
     inkscape:window-y="24"
     inkscape:window-maximized="1"
     fit-margin-top="0"
     fit-margin-left="0"
     fit-margin-right="0"
     fit-margin-bottom="0" />
  <metadata
     id="metadata7">
    <rdf:RDF>
      <cc:Work
         rdf:about="">
        <dc:format>image/svg+xml</dc:format>
        <dc:type
           rdf:resource="http://purl.org/dc/dcmitype/StillImage" />
        <dc:title>PX4/ArduCopter arm numbering and motor directions</dc:title>
        <dc:creator>
          <cc:Agent>
            <dc:title>George Hawkins</dc:title>
          </cc:Agent>
        </dc:creator>
        <cc:license
           rdf:resource="http://creativecommons.org/licenses/by-sa/3.0/" />
        <dc:date>July 29, 2017</dc:date>
      </cc:Work>
      <cc:License
         rdf:about="http://creativecommons.org/licenses/by-sa/3.0/">
        <cc:permits
           rdf:resource="http://creativecommons.org/ns#Reproduction" />
        <cc:permits
           rdf:resource="http://creativecommons.org/ns#Distribution" />
        <cc:requires
           rdf:resource="http://creativecommons.org/ns#Notice" />
        <cc:requires
           rdf:resource="http://creativecommons.org/ns#Attribution" />
        <cc:permits
           rdf:resource="http://creativecommons.org/ns#DerivativeWorks" />
        <cc:requires
           rdf:resource="http://creativecommons.org/ns#ShareAlike" />
      </cc:License>
    </rdf:RDF>
  </metadata>
  <g
     inkscape:label="Layer 1"
     inkscape:groupmode="layer"
     id="layer1"
     transform="translate(-22.23864,-147.37899)">
    <text
       xml:space="preserve"
       style="font-style:normal;font-weight:normal;font-size:5px;line-height:125%;font-family:Sans;letter-spacing:0px;word-spacing:0px;fill:#000000;fill-opacity:1;stroke:none;stroke-width:1px;stroke-linecap:butt;stroke-linejoin:miter;stroke-opacity:1"
       x="608.46277"
       y="422.68362"
       id="text4915"
       sodipodi:linespacing="125%"><tspan
         sodipodi:role="line"
         id="tspan4917"
         x="608.46277"
         y="422.68362" /></text>
    <flowRoot
       xml:space="preserve"
       id="flowRoot4919"
       style="font-style:normal;font-weight:normal;font-size:5px;line-height:125%;font-family:Sans;letter-spacing:0px;word-spacing:0px;fill:#000000;fill-opacity:1;stroke:none;stroke-width:1px;stroke-linecap:butt;stroke-linejoin:miter;stroke-opacity:1"
       transform="translate(1.5,0)"><flowRegion
         id="flowRegion4921"><rect
           id="rect4923"
           width="3.8890872"
           height="5.038136"
           x="594.67682"
           y="407.92276" /></flowRegion><flowPara
         id="flowPara4925" /></flowRoot>    <path
       inkscape:connector-curvature="0"
       style="color:#000000;font-style:normal;font-variant:normal;font-weight:normal;font-stretch:normal;font-size:medium;line-height:normal;font-family:sans-serif;text-indent:0;text-align:start;text-decoration:none;text-decoration-line:none;text-decoration-style:solid;text-decoration-color:#000000;letter-spacing:normal;word-spacing:normal;text-transform:none;direction:ltr;block-progression:tb;writing-mode:lr-tb;baseline-shift:baseline;text-anchor:start;white-space:normal;clip-rule:nonzero;display:inline;overflow:visible;visibility:visible;opacity:1;isolation:auto;mix-blend-mode:normal;color-interpolation:sRGB;color-interpolation-filters:linearRGB;solid-color:#000000;solid-opacity:1;fill:#42bb7f;fill-opacity:1;fill-rule:nonzero;stroke:none;stroke-width:15.99999905;stroke-linecap:round;stroke-linejoin:miter;stroke-miterlimit:4;stroke-dasharray:none;stroke-dashoffset:0;stroke-opacity:1;color-rendering:auto;image-rendering:auto;shape-rendering:auto;text-rendering:auto;enable-background:accumulate"
       d="m 156.58624,154.1612 c -65.88,0 -120.2614,49.98893 -127.23628,114.03906 l 8.67188,-15.01953 7.66211,13.27148 c 7.61767,-54.48567 54.28537,-96.29101 110.90229,-96.29101 59.4358,0 107.90791,46.07115 111.74611,104.51953 l -8.0937,0 15.7832,27.33593 15.7812,-27.33593 -7.4394,0 C 280.47845,207.55421 224.67224,154.1612 156.58624,154.1612 Z m -118.5644,108.07812 -15.7832,27.33594 6.5664,0 c 3.85217,67.15773 59.67277,120.58593 127.7812,120.58593 65.2628,0 119.24471,-49.0564 127.03131,-112.24218 l -7.5957,13.15625 -8.3555,-14.47266 c -7.0645,55.10459 -54.02411,97.55859 -111.08011,97.55859 -59.45823,0 -107.94604,-46.106 -111.7519,-104.58593 l 8.96875,0 -15.78125,-27.33594 z"
       id="path4606-6-9-0" />
    <path
       style="opacity:1;fill:#42bb7f;fill-opacity:1;stroke:none;stroke-width:16;stroke-linecap:round;stroke-miterlimit:4;stroke-dasharray:none;stroke-dashoffset:0;stroke-opacity:1"
       d="m 157.02064,250.16032 a 32,32 0 0 0 -32,32 32,32 0 0 0 32,32 32,32 0 0 0 32,-32 32,32 0 0 0 -32,-32 z m -1.20703,17.23633 c 2.85155,0 5.07162,0.65103 6.66015,1.95312 1.60156,1.30209 2.40235,3.12499 2.40235,5.46875 0,2.78647 -1.19793,4.90885 -3.59375,6.36719 3.03384,1.45834 4.55078,3.84113 4.55078,7.14844 0,2.72137 -0.90496,4.83072 -2.71484,6.32812 -1.79687,1.49741 -4.28388,2.24609 -7.46094,2.2461 -2.89061,0 -5.35809,-0.93098 -7.40234,-2.79297 l 2.53906,-3.92579 c 1.51041,1.60158 3.15105,2.40235 4.92187,2.40235 3.22915,0 4.84375,-1.51691 4.84375,-4.55078 0,-1.38022 -0.46875,-2.5 -1.40625,-3.35938 -0.93749,-0.8724 -2.20053,-1.30859 -3.78906,-1.30859 l -0.89844,0 0,-4.17969 0.76172,0 c 2.91665,0 4.375,-1.21743 4.375,-3.65234 0,-2.5521 -1.36069,-3.82813 -4.08203,-3.82813 -1.40624,0 -2.77344,0.66406 -4.10156,1.99219 l -2.38282,-3.49609 c 0.61198,-0.75522 1.56902,-1.41276 2.8711,-1.97266 1.30208,-0.5599 2.60417,-0.83984 3.90625,-0.83984 z"
       id="path4689-1-7-3"
       inkscape:connector-curvature="0" />
    <path
       inkscape:connector-curvature="0"
       style="color:#000000;font-style:normal;font-variant:normal;font-weight:normal;font-stretch:normal;font-size:medium;line-height:normal;font-family:sans-serif;text-indent:0;text-align:start;text-decoration:none;text-decoration-line:none;text-decoration-style:solid;text-decoration-color:#000000;letter-spacing:normal;word-spacing:normal;text-transform:none;direction:ltr;block-progression:tb;writing-mode:lr-tb;baseline-shift:baseline;text-anchor:start;white-space:normal;clip-rule:nonzero;display:inline;overflow:visible;visibility:visible;opacity:1;isolation:auto;mix-blend-mode:normal;color-interpolation:sRGB;color-interpolation-filters:linearRGB;solid-color:#000000;solid-opacity:1;fill:#5b5589;fill-opacity:1;fill-rule:nonzero;stroke:none;stroke-width:16;stroke-linecap:round;stroke-linejoin:miter;stroke-miterlimit:4;stroke-dasharray:none;stroke-dashoffset:0;stroke-opacity:1;color-rendering:auto;image-rendering:auto;shape-rendering:auto;text-rendering:auto;enable-background:accumulate"
       d="m 187.45719,301.28078 a 35.992188,35.992188 0 0 1 -11.29492,11.33594 l 50.7207,50.7207 c 4.04807,-3.48438 7.83229,-7.26816 11.31638,-11.31641 l -50.74216,-50.74023 z m 369.09956,0.0254 -50.7148,50.71484 c 3.4833,4.04718 7.2656,7.83084 11.3125,11.31446 l 50.7363,-50.73633 a 35.992188,35.992188 0 0 1 -11.334,-11.29297 z m -69.0214,69.02148 -72.3536,72.35547 -43.1543,-43.15429 -43.1582,43.1621 -72.3632,-72.36132 c -3.5436,3.99348 -7.3231,7.77075 -11.3164,11.31445 l 75.3828,75.38281 0,16.58203 0,63.6836 -75.3848,75.38281 c 3.9928,3.54292 7.7712,7.31993 11.3145,11.3125 l 64.0703,-64.07031 0,12.34179 102.8965,0 0,-12.33789 64.0683,64.06836 c 3.5428,-3.99228 7.3202,-7.76977 11.3125,-11.3125 l -75.3808,-75.38086 0,-80.27343 75.3789,-75.38086 c -3.9926,-3.54321 -7.7696,-7.32163 -11.3125,-11.31446 z m -115.5118,51.82813 35.4454,35.44336 0,98.66015 -70.8965,0 0,-98.65039 35.4511,-35.45312 z m -145.14253,208.82617 -50.73829,50.73828 a 35.992188,35.992188 0 0 1 11.33204,11.29492 l 50.72068,-50.7207 c -3.4836,-4.04686 -7.26725,-7.82924 -11.31443,-11.3125 z m 290.27733,0.002 c -4.0475,3.48369 -7.8307,7.26708 -11.3144,11.31446 l 50.7324,50.73242 a 35.992188,35.992188 0 0 1 11.2969,-11.33203 l -50.7149,-50.71485 z"
       id="rect4277-5" />
    <path
       inkscape:connector-curvature="0"
       style="color:#000000;font-style:normal;font-variant:normal;font-weight:normal;font-stretch:normal;font-size:medium;line-height:normal;font-family:sans-serif;text-indent:0;text-align:start;text-decoration:none;text-decoration-line:none;text-decoration-style:solid;text-decoration-color:#000000;letter-spacing:normal;word-spacing:normal;text-transform:none;direction:ltr;block-progression:tb;writing-mode:lr-tb;baseline-shift:baseline;text-anchor:start;white-space:normal;clip-rule:nonzero;display:inline;overflow:visible;visibility:visible;opacity:1;isolation:auto;mix-blend-mode:normal;color-interpolation:sRGB;color-interpolation-filters:linearRGB;solid-color:#000000;solid-opacity:1;fill:#39b0e6;fill-opacity:1;fill-rule:nonzero;stroke:none;stroke-width:15.99999905;stroke-linecap:round;stroke-linejoin:miter;stroke-miterlimit:4;stroke-dasharray:none;stroke-dashoffset:0;stroke-opacity:1;color-rendering:auto;image-rendering:auto;shape-rendering:auto;text-rendering:auto;enable-background:accumulate"
       d="m 285.02085,712.59579 c 0,65.88 -49.989,120.2614 -114.03908,127.23628 l 15.01953,-8.67188 -13.27148,-7.66211 c 54.48567,-7.61767 96.29103,-54.28537 96.29103,-110.90229 0,-59.4358 -46.07117,-107.9079 -104.51955,-111.7461 l 0,8.0937 -27.33593,-15.7832 27.33593,-15.7812 0,7.4394 c 67.12652,3.8852 120.51955,59.6914 120.51955,127.7774 z m -108.07814,118.5644 -27.33594,15.7832 0,-6.5664 C 82.44904,836.52482 29.02084,780.70422 29.02084,712.59579 c 0,-65.2628 49.05639,-119.2447 112.24218,-127.0313 l -13.15625,7.5957 14.47266,8.3555 c -55.10459,7.0645 -97.55859,54.0241 -97.55859,111.0801 0,59.45823 46.106,107.94604 104.58593,111.7519 l 0,-8.96875 27.33594,15.78125 z"
       id="path4606-6-0" />
    <path
       style="opacity:1;fill:#39b0e6;fill-opacity:1;stroke:none;stroke-width:16;stroke-linecap:round;stroke-miterlimit:4;stroke-dasharray:none;stroke-dashoffset:0;stroke-opacity:1"
       d="m 157.02064,680.16032 a 32,32 0 0 0 -32,32 32,32 0 0 0 32,32 32,32 0 0 0 32,-32 32,32 0 0 0 -32,-32 z m -1.52344,17.43555 c 2.92962,0 5.21944,0.67057 6.87305,2.01171 1.6536,1.32813 2.48047,3.17709 2.48047,5.54688 0,2.17447 -1.06125,4.88282 -3.1836,8.125 l -5.85742,8.92578 10.74024,0 0,4.51172 -18.74805,0 0,-1.48438 9.0625,-13.33984 c 1.80985,-2.66927 2.71289,-4.91537 2.71289,-6.73828 0,-2.16146 -1.29368,-3.24219 -3.88476,-3.24219 -1.97912,0 -3.57425,1.04818 -4.78516,3.14453 l -3.41797,-2.69531 c 0.67707,-1.36719 1.73832,-2.5 3.18359,-3.39844 1.4583,-0.91145 3.06645,-1.36719 4.82422,-1.36718 z"
       id="path4689-1-2"
       inkscape:connector-curvature="0" />
    <path
       inkscape:connector-curvature="0"
       style="color:#000000;font-style:normal;font-variant:normal;font-weight:normal;font-stretch:normal;font-size:medium;line-height:normal;font-family:sans-serif;text-indent:0;text-align:start;text-decoration:none;text-decoration-line:none;text-decoration-style:solid;text-decoration-color:#000000;letter-spacing:normal;word-spacing:normal;text-transform:none;direction:ltr;block-progression:tb;writing-mode:lr-tb;baseline-shift:baseline;text-anchor:start;white-space:normal;clip-rule:nonzero;display:inline;overflow:visible;visibility:visible;opacity:1;isolation:auto;mix-blend-mode:normal;color-interpolation:sRGB;color-interpolation-filters:linearRGB;solid-color:#000000;solid-opacity:1;fill:#42bb7f;fill-opacity:1;fill-rule:nonzero;stroke:none;stroke-width:15.99999905;stroke-linecap:round;stroke-linejoin:miter;stroke-miterlimit:4;stroke-dasharray:none;stroke-dashoffset:0;stroke-opacity:1;color-rendering:auto;image-rendering:auto;shape-rendering:auto;text-rendering:auto;enable-background:accumulate"
       d="m 586.58625,584.1612 c -65.88,0 -120.2614,49.98893 -127.2363,114.03906 l 8.6719,-15.01953 7.6621,13.27148 c 7.6177,-54.48567 54.2854,-96.29101 110.9023,-96.29101 59.4358,0 107.9079,46.07115 111.7461,104.51953 l -8.0937,0 15.7832,27.33593 15.7812,-27.33593 -7.4394,0 C 710.47845,637.55421 654.67225,584.1612 586.58625,584.1612 Z m -118.5644,108.07812 -15.7832,27.33594 6.5664,0 c 3.8522,67.15773 59.6728,120.58593 127.7812,120.58593 65.2628,0 119.2447,-49.0564 127.0313,-112.24218 l -7.5957,13.15625 -8.3555,-14.47266 c -7.0645,55.10459 -54.0241,97.55859 -111.0801,97.55859 -59.4582,0 -107.946,-46.106 -111.7519,-104.58593 l 8.9688,0 -15.7813,-27.33594 z"
       id="path4606-6-9" />
    <path
       style="opacity:1;fill:#42bb7f;fill-opacity:1;stroke:none;stroke-width:16;stroke-linecap:round;stroke-miterlimit:4;stroke-dasharray:none;stroke-dashoffset:0;stroke-opacity:1"
       d="m 587.02065,680.16032 a 32,32 0 0 0 -32,32 32,32 0 0 0 32,32 32,32 0 0 0 32,-32 32,32 0 0 0 -32,-32 z m 3.2773,17.61914 2.2266,0 0,17.22656 2.8906,0 0,4.02344 -2.8906,0 0,7.48047 -4.8828,0 0,-7.48047 -13.0273,0 0,-2.91016 15.6835,-18.33984 z m -2.6562,8.63281 -7.3438,8.59375 7.3438,0 0,-8.59375 z"
       id="path4689-1-7"
       inkscape:connector-curvature="0" />
    <path
       inkscape:connector-curvature="0"
       style="color:#000000;font-style:normal;font-variant:normal;font-weight:normal;font-stretch:normal;font-size:medium;line-height:normal;font-family:sans-serif;text-indent:0;text-align:start;text-decoration:none;text-decoration-line:none;text-decoration-style:solid;text-decoration-color:#000000;letter-spacing:normal;word-spacing:normal;text-transform:none;direction:ltr;block-progression:tb;writing-mode:lr-tb;baseline-shift:baseline;text-anchor:start;white-space:normal;clip-rule:nonzero;display:inline;overflow:visible;visibility:visible;opacity:1;isolation:auto;mix-blend-mode:normal;color-interpolation:sRGB;color-interpolation-filters:linearRGB;solid-color:#000000;solid-opacity:1;fill:#39b0e6;fill-opacity:1;fill-rule:nonzero;stroke:none;stroke-width:15.99999905;stroke-linecap:round;stroke-linejoin:miter;stroke-miterlimit:4;stroke-dasharray:none;stroke-dashoffset:0;stroke-opacity:1;color-rendering:auto;image-rendering:auto;shape-rendering:auto;text-rendering:auto;enable-background:accumulate"
       d="m 715.02085,282.59579 c 0,65.88001 -49.9889,120.26141 -114.0391,127.2363 l 15.0196,-8.6719 -13.2715,-7.6621 c 54.4857,-7.6177 96.291,-54.2854 96.291,-110.9023 0,-59.4358 -46.0712,-107.90789 -104.5195,-111.7461 l 0,8.0937 -27.336,-15.7832 27.336,-15.7812 0,7.4394 c 67.1265,3.8852 120.5195,59.6914 120.5195,127.7774 z m -108.0781,118.5644 -27.336,15.7832 0,-6.56639 c -67.1577,-3.8522 -120.5859,-59.6728 -120.5859,-127.7812 0,-65.2628 49.0564,-119.2447 112.2422,-127.0313 l -13.1563,7.5957 14.4727,8.3555 c -55.1046,7.06449 -97.5586,54.0241 -97.5586,111.08009 0,59.4582 46.106,107.946 104.5859,111.7519 l 0,-8.9688 27.336,15.7813 z"
       id="path4606-6-9-1" />
    <path
       style="opacity:1;fill:#39b0e6;fill-opacity:1;stroke:none;stroke-width:16;stroke-linecap:round;stroke-miterlimit:4;stroke-dasharray:none;stroke-dashoffset:0;stroke-opacity:1"
       d="m 587.02065,250.16032 a 32,32 0 0 0 -32,32 32,32 0 0 0 32,32 32,32 0 0 0 32,-32 32,32 0 0 0 -32,-32 z m 0.4609,17.64062 2.0313,0 0,28.72852 -5.0781,0 0,-20.625 -5.8203,3.49609 0,-4.88086 c 3.7368,-1.80987 6.6927,-4.04951 8.8671,-6.71875 z"
       id="path4689-1-7-9"
       inkscape:connector-curvature="0" />
    <text
       xml:space="preserve"
       style="font-style:normal;font-weight:normal;font-size:35px;line-height:125%;font-family:Sans;letter-spacing:0px;word-spacing:0px;fill:#42bb7f;fill-opacity:1;stroke:none;stroke-width:1px;stroke-linecap:butt;stroke-linejoin:miter;stroke-opacity:1"
       x="134.84879"
       y="227.79497"
       id="text4903-6-7-9"
       sodipodi:linespacing="125%"><tspan
         sodipodi:role="line"
         id="tspan4905-6-6-6"
         x="134.84879"
         y="227.79497"
         style="font-style:normal;font-variant:normal;font-weight:bold;font-stretch:normal;font-size:30px;font-family:'Trebuchet MS';-inkscape-font-specification:'Trebuchet MS Bold';fill:#42bb7f;fill-opacity:1">CW</tspan></text>
    <text
       xml:space="preserve"
       style="font-style:normal;font-weight:normal;font-size:35px;line-height:125%;font-family:Sans;letter-spacing:0px;word-spacing:0px;fill:#42bb7f;fill-opacity:1;stroke:none;stroke-width:1px;stroke-linecap:butt;stroke-linejoin:miter;stroke-opacity:1"
       x="564.84882"
       y="788.79492"
       id="text4903-6-7-8"
       sodipodi:linespacing="125%"><tspan
         sodipodi:role="line"
         id="tspan4905-6-6-5"
         x="564.84882"
         y="788.79492"
         style="font-style:normal;font-variant:normal;font-weight:bold;font-stretch:normal;font-size:30px;font-family:'Trebuchet MS';-inkscape-font-specification:'Trebuchet MS Bold';fill:#42bb7f;fill-opacity:1">CW</tspan></text>
    <text
       xml:space="preserve"
       style="font-style:normal;font-weight:normal;font-size:35px;line-height:125%;font-family:Sans;letter-spacing:0px;word-spacing:0px;opacity:1;fill:#39b0e6;fill-opacity:1;stroke:none;stroke-width:1px;stroke-linecap:butt;stroke-linejoin:miter;stroke-opacity:1"
       x="555.84882"
       y="227.79497"
       id="text4903-6-7-7-3"
       sodipodi:linespacing="125%"><tspan
         sodipodi:role="line"
         id="tspan4905-6-6-3-2"
         x="555.84882"
         y="227.79497"
         style="font-style:normal;font-variant:normal;font-weight:bold;font-stretch:normal;font-size:30px;font-family:'Trebuchet MS';-inkscape-font-specification:'Trebuchet MS Bold';fill:#39b0e6;fill-opacity:1">CCW</tspan></text>
    <text
       xml:space="preserve"
       style="font-style:normal;font-weight:normal;font-size:35px;line-height:125%;font-family:Sans;letter-spacing:0px;word-spacing:0px;opacity:1;fill:#39b0e6;fill-opacity:1;stroke:none;stroke-width:1px;stroke-linecap:butt;stroke-linejoin:miter;stroke-opacity:1"
       x="125.84898"
       y="788.79352"
       id="text4903-6-7-7-7"
       sodipodi:linespacing="125%"
       transform="scale(0.99999801,1.000002)"><tspan
         sodipodi:role="line"
         id="tspan4905-6-6-3-6"
         x="125.84898"
         y="788.79352"
         style="font-style:normal;font-variant:normal;font-weight:bold;font-stretch:normal;font-size:30px;font-family:'Trebuchet MS';-inkscape-font-specification:'Trebuchet MS Bold';fill:#39b0e6;fill-opacity:1">CCW</tspan></text>
    <text
       xml:space="preserve"
       style="font-style:normal;font-weight:normal;font-size:30px;line-height:125%;font-family:Sans;letter-spacing:0px;word-spacing:0px;fill:#39b0e6;fill-opacity:1;stroke:none;stroke-width:1px;stroke-linecap:butt;stroke-linejoin:miter;stroke-opacity:1"
       x="696.56116"
       y="176.39491"
       id="text4166"
       sodipodi:linespacing="125%"><tspan
         sodipodi:role="line"
         id="tspan4168"
         x="696.56116"
         y="176.39491"
         style="font-style:normal;font-variant:normal;font-weight:bold;font-stretch:normal;font-size:40px;font-family:'Trebuchet MS';-inkscape-font-specification:'Trebuchet MS Bold';fill:#39b0e6;fill-opacity:1">A</tspan></text>
    <text
       xml:space="preserve"
       style="font-style:normal;font-weight:normal;font-size:30px;line-height:125%;font-family:Sans;letter-spacing:0px;word-spacing:0px;fill:#42bb7f;fill-opacity:1;stroke:none;stroke-width:1px;stroke-linecap:butt;stroke-linejoin:miter;stroke-opacity:1"
       x="699.55005"
       y="846.93933"
       id="text4166-3"
       sodipodi:linespacing="125%"><tspan
         sodipodi:role="line"
         id="tspan4168-0"
         x="699.55005"
         y="846.93933"
         style="font-style:normal;font-variant:normal;font-weight:bold;font-stretch:normal;font-size:40px;font-family:'Trebuchet MS';-inkscape-font-specification:'Trebuchet MS Bold';fill:#42bb7f;fill-opacity:1">B</tspan></text>
    <text
       xml:space="preserve"
       style="font-style:normal;font-weight:normal;font-size:30px;line-height:125%;font-family:Sans;letter-spacing:0px;word-spacing:0px;fill:#39b0e6;fill-opacity:1;stroke:none;stroke-width:1px;stroke-linecap:butt;stroke-linejoin:miter;stroke-opacity:1"
       x="20.68409"
       y="846.45245"
       id="text4166-0"
       sodipodi:linespacing="125%"><tspan
         sodipodi:role="line"
         id="tspan4168-1"
         x="20.68409"
         y="846.45245"
         style="font-style:normal;font-variant:normal;font-weight:bold;font-stretch:normal;font-size:40px;font-family:'Trebuchet MS';-inkscape-font-specification:'Trebuchet MS Bold';fill:#39b0e6;fill-opacity:1">C</tspan></text>
    <text
       xml:space="preserve"
       style="font-style:normal;font-weight:normal;font-size:30px;line-height:125%;font-family:Sans;letter-spacing:0px;word-spacing:0px;fill:#42bb7f;fill-opacity:1;stroke:none;stroke-width:1px;stroke-linecap:butt;stroke-linejoin:miter;stroke-opacity:1"
       x="19.318407"
       y="176.19696"
       id="text4166-5"
       sodipodi:linespacing="125%"><tspan
         sodipodi:role="line"
         id="tspan4168-8"
         x="19.318407"
         y="176.19696"
         style="font-style:normal;font-variant:normal;font-weight:bold;font-stretch:normal;font-size:40px;font-family:'Trebuchet MS';-inkscape-font-specification:'Trebuchet MS Bold';fill:#42bb7f;fill-opacity:1">D</tspan></text>
  </g>
</svg>
